<svg xmlns="http://www.w3.org/2000/svg" viewBox="0 0 64 64" role="img" aria-label="Portfolio Review icon">
  <rect width="64" height="64" rx="12" fill="#303846"/>
  <path fill="#fbfbfa" fill-opacity=".08" d="M12 14h40v2H12zM12 30h40v2H12zM12 46h40v2H12z"/>
  <path fill="#fbfbfa" fill-opacity=".12" d="M15 12h2v40h-2zM31 12h2v40h-2zM47 12h2v40h-2z"/>
  <path fill="#a27442" d="M15 42h6v8h-6zM25 35h6v15h-6zM35 38h6v12h-6zM45 27h6v23h-6z"/>
  <path fill="none" stroke="#fbfbfa" stroke-linecap="round" stroke-linejoin="round" stroke-width="5" d="m14 38 11-9 10 5 15-18"/>
  <path fill="none" stroke="#2f725f" stroke-linecap="round" stroke-linejoin="round" stroke-width="3.25" d="m14 38 11-9 10 5 15-18"/>
  <circle cx="50" cy="16" r="3.5" fill="#2f725f" stroke="#fbfbfa" stroke-width="1.5"/>
</svg>
